<svg width="281" height="506" viewBox="0 0 281 506" fill="none" xmlns="http://www.w3.org/2000/svg">
    <path d="M13.7624 338.915C4.7512 321.985 0.2456 302.051 0.2456 279.114C0.2456 257.814 3.79547 238.836 10.8952 222.179C18.268 205.249 26.1869 191.732 34.652 181.629C43.3901 171.252 53.9032 163.06 66.1912 157.053C78.7523 150.772 91.996 147.632 105.922 147.632C125.583 147.632 141.285 153.23 153.026 164.426L206.684 119.37C205.592 109.812 205.046 100.391 205.046 91.1072C205.046 30.4864 221.02 0.175995 252.969 0.175995C261.161 0.175995 267.578 3.0432 272.22 8.77762C276.862 14.512 279.456 21.8848 280.002 30.896C280.275 44.0032 276.043 57.1104 267.305 70.2176C258.84 83.3248 246.279 97.6608 229.622 113.226C238.087 169.75 242.319 208.253 242.319 228.733C242.319 248.94 239.725 268.601 234.537 287.715C229.349 306.557 221.43 323.76 210.78 339.325C200.13 354.89 185.521 367.041 166.953 375.779C148.384 384.517 126.812 388.886 102.236 388.886C67.0104 388.886 40.3864 376.871 22.364 352.842C17.4488 370.045 14.9912 389.569 14.9912 411.414C14.9912 433.533 20.7256 453.33 32.1944 470.806C43.9363 488.556 58.9549 497.43 77.2504 497.43C78.6157 497.43 79.2984 498.796 79.2984 501.526C79.5715 504.257 78.8888 505.622 77.2504 505.622C55.6781 505.622 37.9288 495.382 24.0024 474.902C10.076 454.695 3.1128 432.167 3.1128 407.318C3.1128 382.469 6.66267 359.668 13.7624 338.915ZM159.99 172.208C167.635 182.585 171.458 194.326 171.458 207.434C171.458 220.268 169.41 231.873 165.314 242.25C161.491 252.353 154.528 261.364 144.425 269.283C134.594 276.929 123.126 280.752 110.018 280.752C107.288 280.752 105.103 280.069 103.465 278.704C102.099 277.339 101.144 275.154 100.598 272.15C112.339 272.15 123.126 266.689 132.956 255.766C147.155 240.475 154.255 223.271 154.255 204.157C154.255 196.238 152.753 188.592 149.75 181.219C119.166 207.434 93.3613 233.102 72.3352 258.224C51.3091 283.346 35.8808 310.653 26.0504 340.144C41.6152 365.266 66.0547 377.827 99.3688 377.827C119.849 377.827 137.735 373.458 153.026 364.72C168.591 356.255 180.743 344.65 189.481 329.904C206.684 300.959 215.286 265.87 215.286 224.637C215.286 214.533 212.828 183.813 207.913 132.477L159.99 172.208ZM143.606 172.618C134.867 163.333 122.853 158.691 107.561 158.691C92.2691 158.691 78.4792 162.378 66.1912 169.75C43.5267 183.404 27.2792 206.341 17.4488 238.563C13.0797 252.217 10.8952 266.279 10.8952 280.752C10.8952 296.863 13.4893 311.745 18.6776 325.398C37.5192 278.158 79.1619 227.231 143.606 172.618ZM225.935 70.2176C225.935 77.5904 226.618 87.4208 227.983 99.7088C255.017 73.2213 268.534 50.8299 268.534 32.5344C268.534 18.3349 263.345 11.2352 252.969 11.2352C234.946 11.2352 225.935 30.896 225.935 70.2176Z"
          fill="#000"/>
</svg>
